# xmcd CD database file generated by grip 2.0
# 
# Track frame offsets:
#       150
#       39272
#       58657
#       119593
#       169454
#       222276
# 
# Disc length: 4141 seconds
# 
# Revision: 3
# Processed by: cddbd v1.4b41PL1 Copyright (c) Steve Scherf et al.
# Submitted via: grip 2.0
# 
DISCID=56102b06
DTITLE=Lynyrd Skynyrd - Live From Steel Town
DYEAR=1900
DGENRE=
TTITLE0=Sweet Home Alabama
TTITLE1=Travelin' Man
TTITLE2=Free Bird
TTITLE3=Radio Interview 1
TTITLE4=Radio Interview 2
TTITLE5=Radio Interview 3
EXTD=
EXTT0=
EXTT1=
EXTT2=
EXTT3=
EXTT4=
EXTT5=
PLAYORDER=
